<svg width="580" height="400" xmlns="http://www.w3.org/2000/svg">
 <!-- Created with Method Draw - http://github.com/duopixel/Method-Draw/ -->

 <g>
  <title>background</title>
  <rect fill="#ffffff" id="canvas_background" height="402" width="582" y="-1" x="-1"/>
  <g display="none" overflow="visible" y="0" x="0" height="100%" width="100%" id="canvasGrid">
   <rect fill="url(#gridpattern)" stroke-width="0" y="0" x="0" height="100%" width="100%"/>
  </g>
 </g>
 <g>
  <title>Layer 1</title>
  <ellipse stroke="#000" ry="129.999821" rx="129.999821" id="svg_20" cy="196.727646" cx="295.555558" fill-opacity="null" stroke-opacity="null" stroke-width="5" fill="none"/>
  <rect id="svg_23" height="143.555354" width="100.444304" y="120.949972" x="363.777682" stroke-width="5" stroke="#ffffff" fill="#ffffff"/>
  <rect id="svg_22" height="153.777562" width="115.11095" y="108.949989" x="138.444665" stroke-width="5" fill="#ffffff"/>
  <path id="svg_6" d="m168.048412,273.024324c1.72413,-6.4655 3.41748,-12.60465 4.42733,-13.82386c1.56856,-1.11841 1.60714,-4.27953 12.38297,-6.4347c10.77583,-2.15517 24.13786,9.91376 24.13786,9.91376" fill-opacity="null" stroke-width="5" stroke="#000000" fill="none"/>
  <line stroke="#000" stroke-linecap="null" stroke-linejoin="null" id="svg_8" y2="141.934509" x2="409.026317" y1="241.213244" x1="370.734891" fill-opacity="null" stroke-opacity="null" stroke-width="5" fill="none"/>
  <line stroke="#000" stroke-linecap="null" stroke-linejoin="null" id="svg_9" y2="141.293995" x2="408.69801" y1="235.609812" x1="448.320884" fill-opacity="null" stroke-opacity="null" stroke-width="5" fill="none"/>
  <line stroke="#000" stroke-linecap="null" stroke-linejoin="null" id="svg_10" y2="207.592648" x2="411.348118" y1="206.730581" x1="384.550812" fill-opacity="null" stroke-opacity="null" stroke-width="5" fill="none"/>
  <line stroke-linecap="null" stroke-linejoin="null" id="svg_13" y2="130.291043" x2="229.24971" y1="131.783597" x1="168.054988" fill-opacity="null" stroke-opacity="null" stroke-width="5" stroke="#000" fill="none"/>
  <line stroke-linecap="null" stroke-linejoin="null" id="svg_14" y2="131.286079" x2="228.2016" y1="238.749981" x1="155.563962" fill-opacity="null" stroke-opacity="null" stroke-width="5" stroke="#000" fill="none"/>
  <line stroke="#000" stroke-linecap="null" stroke-linejoin="null" id="svg_15" y2="240.24253" x2="153.559691" y1="234.769843" x1="220.22711" fill-opacity="null" stroke-opacity="null" stroke-width="5" fill="none"/>
  <path id="svg_18" d="m180.666828,248.41646" opacity="0.5" fill-opacity="null" stroke-opacity="null" stroke-width="5" stroke="#000" fill="none"/>
  <path id="svg_26" d="m390.949204,121.208846c4.430379,8.227845 11.392401,14.240501 16.139235,8.544301c4.746833,-5.696201 2.531644,-13.924045 -1.708854,-19.303791" fill-opacity="null" stroke-opacity="null" stroke-width="5" stroke="#000000" fill="none"/>
 </g>
</svg>